<svg xmlns="http://www.w3.org/2000/svg" viewBox="0 0 64 64">
  <!-- Rounded blue background -->
  <rect width="64" height="64" rx="14" fill="#0EA5E9"/>

  <!-- White tooth -->
  <path d="M32 12 C44 12 51 19 51 28 C51 35 48 40 45 46
           C43.5 51 41 55 37 55 C33.5 55 33 49 32 45
           C31 49 30.5 55 27 55 C23 55 20.5 51 19 46
           C16 40 13 35 13 28 C13 19 20 12 32 12 Z"
        fill="#FFFFFF"/>

  <!-- Subtle smile-curve highlight (decorative) -->
  <path d="M24 22 C28 19 32 20 32 23 C32 20 36 19 40 22"
        stroke="#0EA5E9" stroke-width="2"
        stroke-linecap="round" fill="none" opacity="0.5"/>

  <!-- Sparkle accent -->
  <circle cx="44" cy="20" r="2.5" fill="#FAC775"/>
</svg>
